<mxfile host="app.diagrams.net" modified="2020-04-10T02:11:23.540Z" agent="5.0 (Macintosh; Intel Mac OS X 10_12_6) AppleWebKit/537.36 (KHTML, like Gecko) Chrome/80.0.3987.163 Safari/537.36" etag="-03nQWumepb4uTNRNlgy" version="12.9.10" type="github" pages="4">
  <diagram id="WlhMQushrt4GDDDvZ9ph" name="功能验证_拓扑">
    <mxGraphModel dx="946" dy="467" grid="0" gridSize="10" guides="1" tooltips="1" connect="1" arrows="1" fold="1" page="1" pageScale="1" pageWidth="827" pageHeight="1169" math="0" shadow="0">
      <root>
        <mxCell id="0" />
        <mxCell id="1" parent="0" />
        <mxCell id="GtTl_xB2IYxBkrMz_1nD-1" style="edgeStyle=none;rounded=0;orthogonalLoop=1;jettySize=auto;html=1;endArrow=none;endFill=0;entryX=0;entryY=0.789;entryDx=0;entryDy=0;entryPerimeter=0;" edge="1" parent="1" source="GtTl_xB2IYxBkrMz_1nD-13" target="GtTl_xB2IYxBkrMz_1nD-15">
          <mxGeometry relative="1" as="geometry">
            <mxPoint x="390" y="300" as="sourcePoint" />
            <mxPoint x="456.24" y="252" as="targetPoint" />
          </mxGeometry>
        </mxCell>
        <mxCell id="GtTl_xB2IYxBkrMz_1nD-2" value="&lt;font style=&quot;font-size: 14px&quot; color=&quot;#000000&quot;&gt;bs1&lt;/font&gt;" style="fontColor=#0066CC;verticalAlign=top;verticalLabelPosition=bottom;labelPosition=center;align=center;html=1;outlineConnect=0;fillColor=#CCCCCC;strokeColor=#6881B3;gradientColor=none;gradientDirection=north;strokeWidth=2;shape=mxgraph.networks.radio_tower;" vertex="1" parent="1">
          <mxGeometry x="339.75" y="90" width="37" height="73" as="geometry" />
        </mxCell>
        <mxCell id="GtTl_xB2IYxBkrMz_1nD-7" style="edgeStyle=none;rounded=0;orthogonalLoop=1;jettySize=auto;html=1;endArrow=none;endFill=0;exitX=0;exitY=0.5;exitDx=0;exitDy=0;exitPerimeter=0;" edge="1" parent="1" target="GtTl_xB2IYxBkrMz_1nD-2" source="GtTl_xB2IYxBkrMz_1nD-23">
          <mxGeometry relative="1" as="geometry">
            <mxPoint x="400" y="160" as="targetPoint" />
            <mxPoint x="450" y="200" as="sourcePoint" />
          </mxGeometry>
        </mxCell>
        <mxCell id="GtTl_xB2IYxBkrMz_1nD-13" value="&lt;font style=&quot;font-size: 14px&quot;&gt;ap1&lt;/font&gt;" style="image;html=1;labelBackgroundColor=#ffffff;image=img/lib/clip_art/networking/Wireless_Router_N_128x128.png" vertex="1" parent="1">
          <mxGeometry x="323" y="200" width="70.5" height="61" as="geometry" />
        </mxCell>
        <mxCell id="GtTl_xB2IYxBkrMz_1nD-14" style="rounded=0;orthogonalLoop=1;jettySize=auto;html=1;entryX=0;entryY=0.5;entryDx=0;entryDy=0;entryPerimeter=0;strokeWidth=1;endArrow=none;endFill=0;exitX=1;exitY=0.5;exitDx=0;exitDy=0;exitPerimeter=0;" edge="1" parent="1" target="GtTl_xB2IYxBkrMz_1nD-16" source="GtTl_xB2IYxBkrMz_1nD-15">
          <mxGeometry relative="1" as="geometry">
            <mxPoint x="510" y="270" as="sourcePoint" />
          </mxGeometry>
        </mxCell>
        <mxCell id="GtTl_xB2IYxBkrMz_1nD-15" value="&lt;span style=&quot;font-size: 14px&quot;&gt;r1&lt;/span&gt;" style="shape=mxgraph.cisco.routers.router;html=1;dashed=0;fillColor=#036897;strokeColor=#ffffff;strokeWidth=2;verticalLabelPosition=bottom;verticalAlign=top" vertex="1" parent="1">
          <mxGeometry x="460" y="200" width="63" height="38" as="geometry" />
        </mxCell>
        <mxCell id="GtTl_xB2IYxBkrMz_1nD-16" value="h1" style="fontColor=#0066CC;verticalAlign=top;verticalLabelPosition=bottom;labelPosition=center;align=center;html=1;outlineConnect=0;fillColor=#CCCCCC;strokeColor=#6881B3;gradientColor=none;gradientDirection=north;strokeWidth=2;shape=mxgraph.networks.virtual_pc;" vertex="1" parent="1">
          <mxGeometry x="580" y="190" width="90" height="58.21" as="geometry" />
        </mxCell>
        <mxCell id="GtTl_xB2IYxBkrMz_1nD-18" value="" style="endArrow=none;html=1;entryX=0.33;entryY=0.5;entryDx=0;entryDy=0;entryPerimeter=0;dashed=1;" edge="1" parent="1" target="GtTl_xB2IYxBkrMz_1nD-2">
          <mxGeometry width="50" height="50" relative="1" as="geometry">
            <mxPoint x="235.76999999999998" y="210.60922123893806" as="sourcePoint" />
            <mxPoint x="220" y="130" as="targetPoint" />
          </mxGeometry>
        </mxCell>
        <mxCell id="GtTl_xB2IYxBkrMz_1nD-19" value="" style="endArrow=none;html=1;entryX=0;entryY=0.5;entryDx=0;entryDy=0;dashed=1;" edge="1" parent="1" target="GtTl_xB2IYxBkrMz_1nD-13">
          <mxGeometry width="50" height="50" relative="1" as="geometry">
            <mxPoint x="235.76999999999998" y="230.72354037267075" as="sourcePoint" />
            <mxPoint x="345.21000000000004" y="156.5" as="targetPoint" />
          </mxGeometry>
        </mxCell>
        <mxCell id="GtTl_xB2IYxBkrMz_1nD-20" value="&lt;font style=&quot;font-size: 14px&quot;&gt;ap2&lt;/font&gt;" style="image;html=1;labelBackgroundColor=#ffffff;image=img/lib/clip_art/networking/Wireless_Router_N_128x128.png" vertex="1" parent="1">
          <mxGeometry x="351" y="280" width="70.5" height="61" as="geometry" />
        </mxCell>
        <mxCell id="GtTl_xB2IYxBkrMz_1nD-21" value="" style="endArrow=none;html=1;dashed=1;entryX=0;entryY=0.75;entryDx=0;entryDy=0;" edge="1" parent="1" target="GtTl_xB2IYxBkrMz_1nD-20">
          <mxGeometry width="50" height="50" relative="1" as="geometry">
            <mxPoint x="235.76999999999998" y="249.29634629493762" as="sourcePoint" />
            <mxPoint x="316.25" y="270.5" as="targetPoint" />
          </mxGeometry>
        </mxCell>
        <mxCell id="GtTl_xB2IYxBkrMz_1nD-22" value="" style="endArrow=none;html=1;exitX=1;exitY=0.5;exitDx=0;exitDy=0;" edge="1" parent="1" source="GtTl_xB2IYxBkrMz_1nD-20" target="GtTl_xB2IYxBkrMz_1nD-15">
          <mxGeometry width="50" height="50" relative="1" as="geometry">
            <mxPoint x="440" y="340" as="sourcePoint" />
            <mxPoint x="490" y="290" as="targetPoint" />
          </mxGeometry>
        </mxCell>
        <mxCell id="GtTl_xB2IYxBkrMz_1nD-23" value="&lt;span style=&quot;font-size: 14px&quot;&gt;r2&lt;/span&gt;" style="shape=mxgraph.cisco.routers.router;html=1;dashed=0;fillColor=#036897;strokeColor=#ffffff;strokeWidth=2;verticalLabelPosition=bottom;verticalAlign=top" vertex="1" parent="1">
          <mxGeometry x="460" y="114" width="63" height="38" as="geometry" />
        </mxCell>
        <mxCell id="gSzLC6qSZZE20J0BhAOG-1" value="p1" style="verticalLabelPosition=bottom;aspect=fixed;html=1;verticalAlign=top;strokeColor=none;align=center;outlineConnect=0;shape=mxgraph.citrix.pda;" vertex="1" parent="1">
          <mxGeometry x="182" y="202.42" width="23.62" height="48.04" as="geometry" />
        </mxCell>
      </root>
    </mxGraphModel>
  </diagram>
  <diagram id="4Skq3YghH9AyFSyC5aOX" name="典型案例分析">
    <mxGraphModel dx="946" dy="467" grid="0" gridSize="10" guides="1" tooltips="1" connect="1" arrows="1" fold="1" page="1" pageScale="1" pageWidth="827" pageHeight="1169" math="0" shadow="0">
      <root>
        <mxCell id="0fj_DrqJSkPKNxUSJ2uL-0" />
        <mxCell id="0fj_DrqJSkPKNxUSJ2uL-1" parent="0fj_DrqJSkPKNxUSJ2uL-0" />
        <mxCell id="NDfAUJzYUlQAIVKGV1vW-9" value="" style="ellipse;whiteSpace=wrap;html=1;fillColor=#d5e8d4;strokeColor=#82b366;" vertex="1" parent="0fj_DrqJSkPKNxUSJ2uL-1">
          <mxGeometry x="145" y="72.06" width="400" height="330" as="geometry" />
        </mxCell>
        <mxCell id="NDfAUJzYUlQAIVKGV1vW-8" value="" style="ellipse;whiteSpace=wrap;html=1;fillColor=#dae8fc;strokeColor=#6c8ebf;" vertex="1" parent="0fj_DrqJSkPKNxUSJ2uL-1">
          <mxGeometry x="210" y="210" width="270" height="180" as="geometry" />
        </mxCell>
        <mxCell id="0fj_DrqJSkPKNxUSJ2uL-3" value="&lt;font style=&quot;font-size: 14px&quot; color=&quot;#000000&quot;&gt;bs1&lt;/font&gt;" style="fontColor=#0066CC;verticalAlign=top;verticalLabelPosition=bottom;labelPosition=center;align=center;html=1;outlineConnect=0;fillColor=#CCCCCC;strokeColor=#6881B3;gradientColor=none;gradientDirection=north;strokeWidth=2;shape=mxgraph.networks.radio_tower;" vertex="1" parent="0fj_DrqJSkPKNxUSJ2uL-1">
          <mxGeometry x="339.75" y="90" width="37" height="73" as="geometry" />
        </mxCell>
        <mxCell id="0fj_DrqJSkPKNxUSJ2uL-4" value="" style="verticalLabelPosition=bottom;aspect=fixed;html=1;verticalAlign=top;strokeColor=none;align=center;outlineConnect=0;shape=mxgraph.citrix.laptop_2;" vertex="1" parent="0fj_DrqJSkPKNxUSJ2uL-1">
          <mxGeometry x="268.46" y="339.71" width="55.77" height="41.59" as="geometry" />
        </mxCell>
        <mxCell id="0fj_DrqJSkPKNxUSJ2uL-5" style="edgeStyle=none;rounded=0;orthogonalLoop=1;jettySize=auto;html=1;endArrow=none;endFill=0;exitX=0;exitY=0.5;exitDx=0;exitDy=0;exitPerimeter=0;" edge="1" parent="0fj_DrqJSkPKNxUSJ2uL-1" source="0fj_DrqJSkPKNxUSJ2uL-15" target="0fj_DrqJSkPKNxUSJ2uL-3">
          <mxGeometry relative="1" as="geometry">
            <mxPoint x="400" y="160" as="targetPoint" />
            <mxPoint x="450" y="200" as="sourcePoint" />
          </mxGeometry>
        </mxCell>
        <mxCell id="0fj_DrqJSkPKNxUSJ2uL-18" style="edgeStyle=none;rounded=0;orthogonalLoop=1;jettySize=auto;html=1;exitX=0.88;exitY=0.1;exitDx=0;exitDy=0;exitPerimeter=0;entryX=0.12;entryY=0.9;entryDx=0;entryDy=0;entryPerimeter=0;endArrow=none;endFill=0;" edge="1" parent="0fj_DrqJSkPKNxUSJ2uL-1" source="0fj_DrqJSkPKNxUSJ2uL-8" target="0fj_DrqJSkPKNxUSJ2uL-16">
          <mxGeometry relative="1" as="geometry" />
        </mxCell>
        <mxCell id="0fj_DrqJSkPKNxUSJ2uL-8" value="&lt;span style=&quot;font-size: 14px&quot;&gt;r1&lt;/span&gt;" style="shape=mxgraph.cisco.routers.router;html=1;dashed=0;fillColor=#036897;strokeColor=#ffffff;strokeWidth=2;verticalLabelPosition=bottom;verticalAlign=top" vertex="1" parent="0fj_DrqJSkPKNxUSJ2uL-1">
          <mxGeometry x="567" y="196.99" width="63" height="38" as="geometry" />
        </mxCell>
        <mxCell id="0fj_DrqJSkPKNxUSJ2uL-12" value="&lt;font style=&quot;font-size: 14px&quot;&gt;ap1&lt;/font&gt;" style="image;html=1;labelBackgroundColor=#ffffff;image=img/lib/clip_art/networking/Wireless_Router_N_128x128.png" vertex="1" parent="0fj_DrqJSkPKNxUSJ2uL-1">
          <mxGeometry x="398" y="247.85000000000002" width="70.5" height="61" as="geometry" />
        </mxCell>
        <mxCell id="0fj_DrqJSkPKNxUSJ2uL-14" value="" style="endArrow=none;html=1;exitX=1;exitY=0.5;exitDx=0;exitDy=0;" edge="1" parent="0fj_DrqJSkPKNxUSJ2uL-1" source="0fj_DrqJSkPKNxUSJ2uL-12" target="0fj_DrqJSkPKNxUSJ2uL-8">
          <mxGeometry width="50" height="50" relative="1" as="geometry">
            <mxPoint x="440" y="340" as="sourcePoint" />
            <mxPoint x="490" y="290" as="targetPoint" />
          </mxGeometry>
        </mxCell>
        <mxCell id="0fj_DrqJSkPKNxUSJ2uL-17" style="rounded=0;orthogonalLoop=1;jettySize=auto;html=1;exitX=1;exitY=0.5;exitDx=0;exitDy=0;exitPerimeter=0;entryX=0;entryY=0.5;entryDx=0;entryDy=0;entryPerimeter=0;endArrow=none;endFill=0;" edge="1" parent="0fj_DrqJSkPKNxUSJ2uL-1" source="0fj_DrqJSkPKNxUSJ2uL-15" target="0fj_DrqJSkPKNxUSJ2uL-16">
          <mxGeometry relative="1" as="geometry" />
        </mxCell>
        <mxCell id="0fj_DrqJSkPKNxUSJ2uL-15" value="&lt;span style=&quot;font-size: 14px&quot;&gt;r2&lt;/span&gt;" style="shape=mxgraph.cisco.routers.router;html=1;dashed=0;fillColor=#036897;strokeColor=#ffffff;strokeWidth=2;verticalLabelPosition=bottom;verticalAlign=top" vertex="1" parent="0fj_DrqJSkPKNxUSJ2uL-1">
          <mxGeometry x="530" y="107.5" width="63" height="38" as="geometry" />
        </mxCell>
        <mxCell id="0fj_DrqJSkPKNxUSJ2uL-25" style="edgeStyle=none;rounded=0;orthogonalLoop=1;jettySize=auto;html=1;exitX=1;exitY=0.5;exitDx=0;exitDy=0;exitPerimeter=0;entryX=0;entryY=0.607;entryDx=0;entryDy=0;entryPerimeter=0;endArrow=none;endFill=0;" edge="1" parent="0fj_DrqJSkPKNxUSJ2uL-1" source="0fj_DrqJSkPKNxUSJ2uL-16" target="0fj_DrqJSkPKNxUSJ2uL-24">
          <mxGeometry relative="1" as="geometry" />
        </mxCell>
        <mxCell id="0fj_DrqJSkPKNxUSJ2uL-16" value="&lt;span style=&quot;font-size: 14px&quot;&gt;r3&lt;/span&gt;" style="shape=mxgraph.cisco.routers.router;html=1;dashed=0;fillColor=#036897;strokeColor=#ffffff;strokeWidth=2;verticalLabelPosition=bottom;verticalAlign=top" vertex="1" parent="0fj_DrqJSkPKNxUSJ2uL-1">
          <mxGeometry x="630" y="126.99" width="63" height="38" as="geometry" />
        </mxCell>
        <mxCell id="0fj_DrqJSkPKNxUSJ2uL-24" value="h1" style="points=[];aspect=fixed;html=1;align=center;shadow=0;dashed=0;image;image=img/lib/allied_telesis/computer_and_terminals/Server_Desktop.svg;rounded=0;strokeColor=#000000;fillColor=none;gradientColor=none;" vertex="1" parent="0fj_DrqJSkPKNxUSJ2uL-1">
          <mxGeometry x="740" y="96.99" width="62.3" height="78.98" as="geometry" />
        </mxCell>
        <mxCell id="NDfAUJzYUlQAIVKGV1vW-4" value="l1" style="verticalLabelPosition=bottom;aspect=fixed;html=1;verticalAlign=top;strokeColor=none;align=center;outlineConnect=0;shape=mxgraph.citrix.laptop_2;" vertex="1" parent="0fj_DrqJSkPKNxUSJ2uL-1">
          <mxGeometry x="317.10999999999996" y="308.85" width="55.77" height="41.59" as="geometry" />
        </mxCell>
        <mxCell id="NDfAUJzYUlQAIVKGV1vW-10" value="&lt;font style=&quot;font-size: 14px&quot;&gt;ap1覆盖范围&lt;/font&gt;" style="text;html=1;align=center;verticalAlign=middle;resizable=0;points=[];autosize=1;" vertex="1" parent="0fj_DrqJSkPKNxUSJ2uL-1">
          <mxGeometry x="350.75" y="232" width="89" height="19" as="geometry" />
        </mxCell>
        <mxCell id="NDfAUJzYUlQAIVKGV1vW-11" value="&lt;font style=&quot;font-size: 14px&quot;&gt;bs1覆盖范围&lt;/font&gt;" style="text;html=1;align=center;verticalAlign=middle;resizable=0;points=[];autosize=1;" vertex="1" parent="0fj_DrqJSkPKNxUSJ2uL-1">
          <mxGeometry x="229" y="105" width="89" height="19" as="geometry" />
        </mxCell>
        <mxCell id="dbewegpJFbRYb2aL7lZ2-0" value="" style="html=1;outlineConnect=0;fillColor=#fff2cc;strokeColor=#d6b656;gradientDirection=north;strokeWidth=2;shape=mxgraph.networks.comm_link_edge;html=1;endArrow=none;endFill=0;" edge="1" parent="0fj_DrqJSkPKNxUSJ2uL-1">
          <mxGeometry width="100" height="100" relative="1" as="geometry">
            <mxPoint x="330" y="302.84000000000003" as="sourcePoint" />
            <mxPoint x="400" y="272.84000000000003" as="targetPoint" />
            <Array as="points">
              <mxPoint x="481" y="272.84000000000003" />
            </Array>
          </mxGeometry>
        </mxCell>
        <mxCell id="jobPoXkWMVx1p8veHfGL-6" value="" style="group" vertex="1" connectable="0" parent="0fj_DrqJSkPKNxUSJ2uL-1">
          <mxGeometry x="241" y="220" width="97" height="99" as="geometry" />
        </mxCell>
        <mxCell id="jobPoXkWMVx1p8veHfGL-0" value="" style="verticalLabelPosition=bottom;aspect=fixed;html=1;verticalAlign=top;strokeColor=none;align=center;outlineConnect=0;shape=mxgraph.citrix.pda;" vertex="1" parent="jobPoXkWMVx1p8veHfGL-6">
          <mxGeometry x="22.409809845388306" y="1.5121293800538982" width="19.62582192998045" height="39.906699840056866" as="geometry" />
        </mxCell>
        <mxCell id="jobPoXkWMVx1p8veHfGL-1" value="" style="verticalLabelPosition=bottom;aspect=fixed;html=1;verticalAlign=top;strokeColor=none;align=center;outlineConnect=0;shape=mxgraph.citrix.pda;" vertex="1" parent="jobPoXkWMVx1p8veHfGL-6">
          <mxGeometry x="59.47218766660743" y="57.81671159029649" width="19.62582192998045" height="39.906699840056866" as="geometry" />
        </mxCell>
        <mxCell id="jobPoXkWMVx1p8veHfGL-2" value="" style="verticalLabelPosition=bottom;aspect=fixed;html=1;verticalAlign=top;strokeColor=none;align=center;outlineConnect=0;shape=mxgraph.citrix.pda;" vertex="1" parent="jobPoXkWMVx1p8veHfGL-6">
          <mxGeometry y="36.130997304582216" width="19.62582192998045" height="39.906699840056866" as="geometry" />
        </mxCell>
        <mxCell id="jobPoXkWMVx1p8veHfGL-3" value="" style="verticalLabelPosition=bottom;aspect=fixed;html=1;verticalAlign=top;strokeColor=none;align=center;outlineConnect=0;shape=mxgraph.citrix.pda;" vertex="1" parent="jobPoXkWMVx1p8veHfGL-6">
          <mxGeometry x="57.7483561400391" width="19.62582192998045" height="39.906699840056866" as="geometry" />
        </mxCell>
        <mxCell id="jobPoXkWMVx1p8veHfGL-4" value="" style="verticalLabelPosition=bottom;aspect=fixed;html=1;verticalAlign=top;strokeColor=none;align=center;outlineConnect=0;shape=mxgraph.citrix.pda;" vertex="1" parent="jobPoXkWMVx1p8veHfGL-6">
          <mxGeometry x="77.37417807001954" y="21.614555256064698" width="19.62582192998045" height="39.906699840056866" as="geometry" />
        </mxCell>
        <mxCell id="jobPoXkWMVx1p8veHfGL-5" value="" style="verticalLabelPosition=bottom;aspect=fixed;html=1;verticalAlign=top;strokeColor=none;align=center;outlineConnect=0;shape=mxgraph.citrix.pda;" vertex="1" parent="jobPoXkWMVx1p8veHfGL-6">
          <mxGeometry x="35.33854629465079" y="34.61886792452832" width="19.62582192998045" height="39.906699840056866" as="geometry" />
        </mxCell>
      </root>
    </mxGraphModel>
  </diagram>
  <diagram id="ebVaDeRC8PUv4hWQNQaK" name="Page-3">
    <mxGraphModel dx="946" dy="467" grid="0" gridSize="10" guides="1" tooltips="1" connect="1" arrows="1" fold="1" page="1" pageScale="1" pageWidth="827" pageHeight="1169" math="0" shadow="0">
      <root>
        <mxCell id="Hca61ssWEQRVlNue1Zrp-0" />
        <mxCell id="Hca61ssWEQRVlNue1Zrp-1" parent="Hca61ssWEQRVlNue1Zrp-0" />
        <mxCell id="Hca61ssWEQRVlNue1Zrp-7" style="edgeStyle=none;rounded=0;orthogonalLoop=1;jettySize=auto;html=1;exitX=1;exitY=0.5;exitDx=0;exitDy=0;exitPerimeter=0;entryX=0.016;entryY=0.646;entryDx=0;entryDy=0;entryPerimeter=0;endArrow=none;endFill=0;" edge="1" parent="Hca61ssWEQRVlNue1Zrp-1" source="Hca61ssWEQRVlNue1Zrp-8" target="Hca61ssWEQRVlNue1Zrp-15">
          <mxGeometry relative="1" as="geometry">
            <mxPoint x="630" y="145.99" as="targetPoint" />
          </mxGeometry>
        </mxCell>
        <mxCell id="Hca61ssWEQRVlNue1Zrp-8" value="&lt;span style=&quot;font-size: 14px&quot;&gt;r1&lt;/span&gt;" style="shape=mxgraph.cisco.routers.router;html=1;dashed=0;fillColor=#036897;strokeColor=#ffffff;strokeWidth=2;verticalLabelPosition=bottom;verticalAlign=top" vertex="1" parent="Hca61ssWEQRVlNue1Zrp-1">
          <mxGeometry x="500" y="126.99000000000001" width="63" height="38" as="geometry" />
        </mxCell>
        <mxCell id="Hca61ssWEQRVlNue1Zrp-9" value="&lt;font style=&quot;font-size: 14px&quot;&gt;ap1&lt;/font&gt;" style="image;html=1;labelBackgroundColor=#ffffff;image=img/lib/clip_art/networking/Wireless_Router_N_128x128.png" vertex="1" parent="Hca61ssWEQRVlNue1Zrp-1">
          <mxGeometry x="390" y="115.49000000000001" width="70.5" height="61" as="geometry" />
        </mxCell>
        <mxCell id="Hca61ssWEQRVlNue1Zrp-10" value="" style="endArrow=none;html=1;exitX=1;exitY=0.5;exitDx=0;exitDy=0;" edge="1" parent="Hca61ssWEQRVlNue1Zrp-1" source="Hca61ssWEQRVlNue1Zrp-9" target="Hca61ssWEQRVlNue1Zrp-8">
          <mxGeometry width="50" height="50" relative="1" as="geometry">
            <mxPoint x="440" y="340" as="sourcePoint" />
            <mxPoint x="490" y="290" as="targetPoint" />
          </mxGeometry>
        </mxCell>
        <mxCell id="Hca61ssWEQRVlNue1Zrp-15" value="h1" style="points=[];aspect=fixed;html=1;align=center;shadow=0;dashed=0;image;image=img/lib/allied_telesis/computer_and_terminals/Server_Desktop.svg;rounded=0;strokeColor=#000000;fillColor=none;gradientColor=none;" vertex="1" parent="Hca61ssWEQRVlNue1Zrp-1">
          <mxGeometry x="644" y="95" width="62.3" height="78.98" as="geometry" />
        </mxCell>
        <mxCell id="Hca61ssWEQRVlNue1Zrp-25" value="" style="html=1;outlineConnect=0;fillColor=#fff2cc;strokeColor=#d6b656;gradientDirection=north;strokeWidth=2;shape=mxgraph.networks.comm_link_edge;html=1;endArrow=none;endFill=0;" edge="1" parent="Hca61ssWEQRVlNue1Zrp-1">
          <mxGeometry width="100" height="100" relative="1" as="geometry">
            <mxPoint x="310" y="180.00000000000003" as="sourcePoint" />
            <mxPoint x="380" y="150.00000000000003" as="targetPoint" />
            <Array as="points" />
          </mxGeometry>
        </mxCell>
        <mxCell id="ePXItKQwDVMoxWzTYv0f-0" value="l1" style="verticalLabelPosition=bottom;aspect=fixed;html=1;verticalAlign=top;strokeColor=none;align=center;outlineConnect=0;shape=mxgraph.citrix.laptop_2;" vertex="1" parent="Hca61ssWEQRVlNue1Zrp-1">
          <mxGeometry x="243" y="129" width="55.77" height="41.59" as="geometry" />
        </mxCell>
      </root>
    </mxGraphModel>
  </diagram>
  <diagram id="AMV5YD7Wk3DPAyaryHjs" name="案例2_无线网卡监听">
    <mxGraphModel dx="946" dy="467" grid="0" gridSize="10" guides="1" tooltips="1" connect="1" arrows="1" fold="1" page="1" pageScale="1" pageWidth="827" pageHeight="1169" math="0" shadow="0">
      <root>
        <mxCell id="DMkWjT19_F2qcV1ZfrG8-0" />
        <mxCell id="DMkWjT19_F2qcV1ZfrG8-1" parent="DMkWjT19_F2qcV1ZfrG8-0" />
        <mxCell id="hhyAbjR_maK3GJlDOYh0-0" value="" style="ellipse;whiteSpace=wrap;html=1;fillColor=#dae8fc;strokeColor=#6c8ebf;" vertex="1" parent="DMkWjT19_F2qcV1ZfrG8-1">
          <mxGeometry x="210" y="210" width="270" height="180" as="geometry" />
        </mxCell>
        <mxCell id="hhyAbjR_maK3GJlDOYh0-1" value="" style="verticalLabelPosition=bottom;aspect=fixed;html=1;verticalAlign=top;strokeColor=none;align=center;outlineConnect=0;shape=mxgraph.citrix.laptop_2;" vertex="1" parent="DMkWjT19_F2qcV1ZfrG8-1">
          <mxGeometry x="229.99999999999997" y="308.84999999999997" width="55.77" height="41.59" as="geometry" />
        </mxCell>
        <mxCell id="hhyAbjR_maK3GJlDOYh0-2" value="&lt;font style=&quot;font-size: 14px&quot;&gt;ap1&lt;/font&gt;" style="image;html=1;labelBackgroundColor=#ffffff;image=img/lib/clip_art/networking/Wireless_Router_N_128x128.png" vertex="1" parent="DMkWjT19_F2qcV1ZfrG8-1">
          <mxGeometry x="398" y="247.85000000000002" width="70.5" height="61" as="geometry" />
        </mxCell>
        <mxCell id="hhyAbjR_maK3GJlDOYh0-3" value="l1" style="verticalLabelPosition=bottom;aspect=fixed;html=1;verticalAlign=top;strokeColor=none;align=center;outlineConnect=0;shape=mxgraph.citrix.laptop_2;" vertex="1" parent="DMkWjT19_F2qcV1ZfrG8-1">
          <mxGeometry x="317.11999999999995" y="330" width="55.77" height="41.59" as="geometry" />
        </mxCell>
        <mxCell id="hhyAbjR_maK3GJlDOYh0-4" value="&lt;font style=&quot;font-size: 14px&quot;&gt;ap1覆盖范围&lt;/font&gt;" style="text;html=1;align=center;verticalAlign=middle;resizable=0;points=[];autosize=1;" vertex="1" parent="DMkWjT19_F2qcV1ZfrG8-1">
          <mxGeometry x="350.75" y="232" width="89" height="19" as="geometry" />
        </mxCell>
        <mxCell id="hhyAbjR_maK3GJlDOYh0-5" value="" style="html=1;outlineConnect=0;fillColor=#fff2cc;strokeColor=#d6b656;gradientDirection=north;strokeWidth=2;shape=mxgraph.networks.comm_link_edge;html=1;endArrow=none;endFill=0;" edge="1" parent="DMkWjT19_F2qcV1ZfrG8-1">
          <mxGeometry width="100" height="100" relative="1" as="geometry">
            <mxPoint x="330" y="302.84000000000003" as="sourcePoint" />
            <mxPoint x="400" y="272.84000000000003" as="targetPoint" />
            <Array as="points">
              <mxPoint x="481" y="272.84000000000003" />
            </Array>
          </mxGeometry>
        </mxCell>
        <mxCell id="hhyAbjR_maK3GJlDOYh0-6" value="" style="group" vertex="1" connectable="0" parent="DMkWjT19_F2qcV1ZfrG8-1">
          <mxGeometry x="241" y="220" width="97" height="99" as="geometry" />
        </mxCell>
        <mxCell id="hhyAbjR_maK3GJlDOYh0-7" value="" style="verticalLabelPosition=bottom;aspect=fixed;html=1;verticalAlign=top;strokeColor=none;align=center;outlineConnect=0;shape=mxgraph.citrix.pda;" vertex="1" parent="hhyAbjR_maK3GJlDOYh0-6">
          <mxGeometry x="22.409809845388306" y="1.5121293800538982" width="19.62582192998045" height="39.906699840056866" as="geometry" />
        </mxCell>
        <mxCell id="hhyAbjR_maK3GJlDOYh0-8" value="" style="verticalLabelPosition=bottom;aspect=fixed;html=1;verticalAlign=top;strokeColor=none;align=center;outlineConnect=0;shape=mxgraph.citrix.pda;" vertex="1" parent="hhyAbjR_maK3GJlDOYh0-6">
          <mxGeometry x="59.47218766660743" y="57.81671159029649" width="19.62582192998045" height="39.906699840056866" as="geometry" />
        </mxCell>
        <mxCell id="hhyAbjR_maK3GJlDOYh0-9" value="" style="verticalLabelPosition=bottom;aspect=fixed;html=1;verticalAlign=top;strokeColor=none;align=center;outlineConnect=0;shape=mxgraph.citrix.pda;" vertex="1" parent="hhyAbjR_maK3GJlDOYh0-6">
          <mxGeometry y="36.130997304582216" width="19.62582192998045" height="39.906699840056866" as="geometry" />
        </mxCell>
        <mxCell id="hhyAbjR_maK3GJlDOYh0-10" value="" style="verticalLabelPosition=bottom;aspect=fixed;html=1;verticalAlign=top;strokeColor=none;align=center;outlineConnect=0;shape=mxgraph.citrix.pda;" vertex="1" parent="hhyAbjR_maK3GJlDOYh0-6">
          <mxGeometry x="57.7483561400391" width="19.62582192998045" height="39.906699840056866" as="geometry" />
        </mxCell>
        <mxCell id="hhyAbjR_maK3GJlDOYh0-11" value="" style="verticalLabelPosition=bottom;aspect=fixed;html=1;verticalAlign=top;strokeColor=none;align=center;outlineConnect=0;shape=mxgraph.citrix.pda;" vertex="1" parent="hhyAbjR_maK3GJlDOYh0-6">
          <mxGeometry x="77.37417807001954" y="21.614555256064698" width="19.62582192998045" height="39.906699840056866" as="geometry" />
        </mxCell>
        <mxCell id="hhyAbjR_maK3GJlDOYh0-12" value="" style="verticalLabelPosition=bottom;aspect=fixed;html=1;verticalAlign=top;strokeColor=none;align=center;outlineConnect=0;shape=mxgraph.citrix.pda;" vertex="1" parent="hhyAbjR_maK3GJlDOYh0-6">
          <mxGeometry x="35.33854629465079" y="34.61886792452832" width="19.62582192998045" height="39.906699840056866" as="geometry" />
        </mxCell>
        <mxCell id="njA7HDfUYiB9-IStHmZL-0" style="edgeStyle=none;rounded=0;orthogonalLoop=1;jettySize=auto;html=1;entryX=0;entryY=0.5;entryDx=0;entryDy=0;entryPerimeter=0;endArrow=none;endFill=0;" edge="1" parent="DMkWjT19_F2qcV1ZfrG8-1" source="hhyAbjR_maK3GJlDOYh0-2" target="njA7HDfUYiB9-IStHmZL-4">
          <mxGeometry relative="1" as="geometry">
            <mxPoint x="555.44" y="273.79999999999995" as="sourcePoint" />
          </mxGeometry>
        </mxCell>
        <mxCell id="njA7HDfUYiB9-IStHmZL-3" style="edgeStyle=none;rounded=0;orthogonalLoop=1;jettySize=auto;html=1;exitX=1;exitY=0.5;exitDx=0;exitDy=0;exitPerimeter=0;entryX=0;entryY=0.607;entryDx=0;entryDy=0;entryPerimeter=0;endArrow=none;endFill=0;" edge="1" parent="DMkWjT19_F2qcV1ZfrG8-1" source="njA7HDfUYiB9-IStHmZL-4" target="njA7HDfUYiB9-IStHmZL-5">
          <mxGeometry relative="1" as="geometry" />
        </mxCell>
        <mxCell id="njA7HDfUYiB9-IStHmZL-4" value="&lt;span style=&quot;font-size: 14px&quot;&gt;r3&lt;/span&gt;" style="shape=mxgraph.cisco.routers.router;html=1;dashed=0;fillColor=#036897;strokeColor=#ffffff;strokeWidth=2;verticalLabelPosition=bottom;verticalAlign=top" vertex="1" parent="DMkWjT19_F2qcV1ZfrG8-1">
          <mxGeometry x="530" y="247.85" width="63" height="38" as="geometry" />
        </mxCell>
        <mxCell id="njA7HDfUYiB9-IStHmZL-5" value="h1" style="points=[];aspect=fixed;html=1;align=center;shadow=0;dashed=0;image;image=img/lib/allied_telesis/computer_and_terminals/Server_Desktop.svg;rounded=0;strokeColor=#000000;fillColor=none;gradientColor=none;" vertex="1" parent="DMkWjT19_F2qcV1ZfrG8-1">
          <mxGeometry x="660" y="229.87" width="62.3" height="78.98" as="geometry" />
        </mxCell>
      </root>
    </mxGraphModel>
  </diagram>
</mxfile>
